HIERARCHY
ROOT joint_0
{
	OFFSET 0.000000 0.000000 0.000000
	CHANNELS 6 Xposition Yposition Zposition Zrotation Yrotation Xrotation 
	JOINT joint_1
	{
		OFFSET 6.579712 -2.778931 100.531982
		CHANNELS 3 Zrotation Yrotation Xrotation
		JOINT joint_2
		{
			OFFSET -3.313232 -1.302856 91.974976
			CHANNELS 3 Zrotation Yrotation Xrotation
			JOINT joint_3
			{
				OFFSET -3.421509 -1.641846 91.864014
				CHANNELS 3 Zrotation Yrotation Xrotation
				JOINT joint_4
				{
					OFFSET 7.697388 -4.642578 123.278931
					CHANNELS 3 Zrotation Yrotation Xrotation
					JOINT joint_5
					{
						OFFSET 24.842529 -5.941528 79.695068
						CHANNELS 3 Zrotation Yrotation Xrotation
						End Site
						{
							OFFSET 0.000000 0.000000 0.000000
						}
					}
				}
				JOINT joint_6
				{
					OFFSET -0.159668 -29.112976 68.364014
					CHANNELS 3 Zrotation Yrotation Xrotation
					JOINT joint_7
					{
						OFFSET -18.356079 -115.987061 -20.069092
						CHANNELS 3 Zrotation Yrotation Xrotation
						JOINT joint_8
						{
							OFFSET 31.719482 -11.733276 -267.170898
							CHANNELS 3 Zrotation Yrotation Xrotation
							JOINT joint_9
							{
								OFFSET 29.329956 -5.879517 -234.654053
								CHANNELS 3 Zrotation Yrotation Xrotation
								End Site
								{
									OFFSET 0.000000 0.000000 0.000000
								}
							}
						}
					}
				}
				JOINT joint_10
				{
					OFFSET 8.802979 23.897949 69.798950
					CHANNELS 3 Zrotation Yrotation Xrotation
					JOINT joint_11
					{
						OFFSET 21.159058 115.524292 -19.981934
						CHANNELS 3 Zrotation Yrotation Xrotation
						JOINT joint_12
						{
							OFFSET 18.809204 5.403442 -268.593018
							CHANNELS 3 Zrotation Yrotation Xrotation
							JOINT joint_13
							{
								OFFSET 20.807861 0.421265 -235.639038
								CHANNELS 3 Zrotation Yrotation Xrotation
								End Site
								{
									OFFSET 0.000000 0.000000 0.000000
								}
							}
						}
					}
				}
			}
		}
	}
	JOINT joint_14
	{
		OFFSET -9.713379 -79.513916 -99.348022
		CHANNELS 3 Zrotation Yrotation Xrotation
		JOINT joint_15
		{
			OFFSET -40.607788 -6.518372 -502.938019
			CHANNELS 3 Zrotation Yrotation Xrotation
			JOINT joint_16
			{
				OFFSET -19.807617 -7.437378 -399.590012
				CHANNELS 3 Zrotation Yrotation Xrotation
				JOINT joint_17
				{
					OFFSET 171.701660 -44.751282 -77.782000
					CHANNELS 3 Zrotation Yrotation Xrotation
					End Site
					{
						OFFSET 0.000000 0.000000 0.000000
					}
				}
			}
		}
	}
	JOINT joint_18
	{
		OFFSET 17.854858 79.618652 -98.128052
		CHANNELS 3 Zrotation Yrotation Xrotation
		JOINT joint_19
		{
			OFFSET -24.848877 16.861816 -503.722992
			CHANNELS 3 Zrotation Yrotation Xrotation
			JOINT joint_20
			{
				OFFSET -30.162476 14.470093 -398.750008
				CHANNELS 3 Zrotation Yrotation Xrotation
				JOINT joint_21
				{
					OFFSET 176.096680 -10.987549 -80.021000
					CHANNELS 3 Zrotation Yrotation Xrotation
					End Site
					{
						OFFSET 0.000000 0.000000 0.000000
					}
				}
			}
		}
	}
}
MOTION
Frames: 6
Frame Time: 0.016667
-1130.786865 860.905579 1097.947021 18.982678 1.217015 -0.827437 -0.055603 -1.142613 0.121436 -0.037920 0.177778 -0.042630 -0.043499 -0.232503 0.010941 -0.060227 0.992162 0.401118 0.000000 0.000000 0.000000 -0.413306 2.805610 1.302736 -0.058025 2.845576 0.710481 -0.130418 -1.999479 -1.659641 0.000000 0.000000 0.000000 0.749596 0.521614 1.017781 -0.268360 1.070521 -2.905321 0.110541 -2.650449 3.220455 0.000000 0.000000 0.000000 1.553662 -1.240113 0.679731 1.579417 0.607137 0.297662 1.654066 -2.378923 0.130897 0.000000 0.000000 0.000000 -1.849441 -1.174260 0.702657 -1.733879 1.142593 -0.074916 -1.773564 -1.535906 -0.901163 0.000000 0.000000 0.000000 
-1130.578247 860.984497 1097.942017 18.976350 1.252217 -0.822533 -0.057537 -1.142484 0.133832 -0.040639 0.178619 -0.045625 -0.046106 -0.233840 0.012636 -0.058497 1.001333 0.397120 0.000000 0.000000 0.000000 -0.400735 2.810007 1.292310 -0.058676 2.850453 0.711197 -0.129272 -2.006510 -1.652621 0.000000 0.000000 0.000000 0.759288 0.519978 1.021100 -0.268499 1.068071 -2.906134 0.110090 -2.653610 3.215139 0.000000 0.000000 0.000000 1.555478 -1.267138 0.672607 1.580740 0.609885 0.297548 1.655609 -2.385449 0.129919 0.000000 0.000000 0.000000 -1.847570 -1.201071 0.695494 -1.731719 1.146891 -0.070152 -1.771565 -1.544697 -0.900776 0.000000 0.000000 0.000000 
-1130.365723 861.058533 1097.936035 18.969625 1.291677 -0.816337 -0.058962 -1.145417 0.144538 -0.042735 0.180293 -0.048525 -0.048079 -0.234958 0.015068 -0.057618 1.006903 0.395159 0.000000 0.000000 0.000000 -0.387648 2.813879 1.282891 -0.059241 2.854968 0.712421 -0.128384 -2.009739 -1.646655 0.000000 0.000000 0.000000 0.766733 0.517345 1.024518 -0.268569 1.065025 -2.906790 0.109756 -2.655664 3.210573 0.000000 0.000000 0.000000 1.557696 -1.297143 0.663758 1.582300 0.609041 0.298407 1.657298 -2.390464 0.129399 0.000000 0.000000 0.000000 -1.845631 -1.231273 0.688305 -1.729370 1.148672 -0.067513 -1.769428 -1.552467 -0.900261 0.000000 0.000000 0.000000 
-1130.151001 861.126953 1097.928955 18.963342 1.336351 -0.808039 -0.058851 -1.149961 0.152922 -0.043210 0.180934 -0.050736 -0.048499 -0.236117 0.015939 -0.058594 1.009871 0.398660 0.000000 0.000000 0.000000 -0.376069 2.817192 1.275993 -0.059558 2.858766 0.715302 -0.128088 -2.006375 -1.643621 0.000000 0.000000 0.000000 0.769371 0.512861 1.028393 -0.268459 1.060921 -2.906647 0.109725 -2.654411 3.208046 0.000000 0.000000 0.000000 1.560144 -1.330154 0.651911 1.583790 0.602387 0.300910 1.658784 -2.392842 0.129468 0.000000 0.000000 0.000000 -1.843892 -1.265691 0.680589 -1.727096 1.146910 -0.067857 -1.767429 -1.558822 -0.899721 0.000000 0.000000 0.000000 
-1129.930908 861.189880 1097.921997 18.957092 1.385684 -0.798123 -0.058861 -1.157974 0.158308 -0.043614 0.181942 -0.051594 -0.048894 -0.237310 0.017102 -0.060264 1.010911 0.404021 0.000000 0.000000 0.000000 -0.362933 2.820029 1.270384 -0.059807 2.862495 0.718591 -0.128094 -1.998841 -1.641871 0.000000 0.000000 0.000000 0.771772 0.507866 1.031919 -0.268253 1.056179 -2.905860 0.109846 -2.651539 3.206596 0.000000 0.000000 0.000000 1.562707 -1.366280 0.638207 1.585257 0.591760 0.303992 1.660114 -2.393341 0.129955 0.000000 0.000000 0.000000 -1.841915 -1.303937 0.672597 -1.724459 1.142592 -0.070462 -1.765119 -1.563617 -0.898941 0.000000 0.000000 0.000000 
-1129.702515 861.250732 1097.912964 18.947106 1.435943 -0.788505 -0.059328 -1.167207 0.164681 -0.044509 0.183498 -0.053262 -0.049794 -0.240134 0.018161 -0.061827 1.011241 0.408923 0.000000 0.000000 0.000000 -0.347990 2.822850 1.263535 -0.059925 2.866072 0.723291 -0.127969 -1.993235 -1.639471 0.000000 0.000000 0.000000 0.775216 0.503830 1.036504 -0.267893 1.052268 -2.904156 0.110016 -2.648247 3.204538 0.000000 0.000000 0.000000 1.566287 -1.403934 0.624671 1.587704 0.582386 0.307659 1.662512 -2.394865 0.130659 0.000000 0.000000 0.000000 -1.838995 -1.341402 0.666086 -1.720804 1.136017 -0.074886 -1.761895 -1.568833 -0.897773 0.000000 0.000000 0.000000 
